<?xml version="1.0" ?><svg style="enable-background:new 0 0 48 48;" version="1.1" viewBox="0 0 48 48" xml:space="preserve" xmlns="http://www.w3.org/2000/svg" xmlns:xlink="http://www.w3.org/1999/xlink"><style type="text/css">
	.st0{display:none;}
	.st1{fill:none;stroke:#006399;strokeWidth:0.7;strokeLinecap:round;strokeLinejoin:round;stroke-miterlimit:10;}
	.st2{fill:#006399;}
</style><g class="st0" id="Padding__x26__Artboard"/><g id="Icons"><g><g><path class="st1" d="M24.67759,25.14095c-0.80827-0.08599-1.69922-0.45951-2.31832-1.06141     c-0.0086-0.0086-0.02579-0.02579-0.0344-0.03439c-0.28375-0.28376-0.50732-0.59331-0.67929-0.93725     c-0.24936-0.47293-0.39554-0.99744-0.41273-1.53056c-0.04299-0.55891,0.04299-1.12642,0.25796-1.65094     c0.18057-0.45573,0.45573-0.88566,0.82547-1.2554l6.66396-6.66396c1.47897-1.47897,3.88659-1.47897,5.37416,0.0086     c1.47897,1.47897,1.47897,3.88659,0,5.36556l-5.65791,5.65792 M29.47895,24.49228l5.99326-5.99326     c2.09807-2.09807,2.08947-5.51174,0-7.60121c-2.09807-2.09807-5.51174-2.10667-7.60981-0.0086l-6.66396,6.66396     c-0.86846,0.86847-1.36719,1.96909-1.52196,3.10411c-0.07739,0.57611-0.06019,1.16082,0.05159,1.71973     c0.11178,0.55891,0.30095,1.09203,0.58471,1.58215l-0.0086,0.0086c0.24076,0.42993,0.54172,0.83407,0.90286,1.19521     c1.07483,1.07483,2.49361,1.59935,3.92099,1.54776"/></g><g><path class="st1" d="M23.4083,22.87573c-0.08599-0.10318-0.14618-0.21497-0.21497-0.33535     c-0.18057-0.35254-0.28376-0.74808-0.30095-1.14362c0-0.0344-0.0086-0.07739-0.0086-0.11178"/></g><g><path class="st1" d="M20.31279,23.95916l-0.0086,0.0086 M22.35927,24.07954l-0.0086-0.0086 M24.66899,25.13235     c0.0086,0.0086,0.0086,0.0086,0.0086,0.0086c0.11178,0.14618,0.20637,0.29235,0.27516,0.44713     c0.18917,0.34395,0.15809,0.69271,0.17529,1.08825c0,0.0172,0,0.0172,0,0.0344 M22.88379,21.28498     c1.41018-0.05159,2.83755,0.48152,3.91239,1.55636c0.36115,0.36114,0.6707,0.77388,0.89426,1.20381     c0.29235,0.49872,0.47293,1.04044,0.57611,1.59075c0.11178,0.57611,0.12898,1.16082,0.04299,1.74553     c-0.14618,1.12642-0.6535,2.20126-1.51336,3.06112l-6.66396,6.66396c-2.09807,2.09807-5.50314,2.09807-7.60121,0     s-2.09807-5.50314,0-7.60121l6.00186-6.00186 M23.4083,22.87573c0.82547,0.08599,1.63375,0.44713,2.27004,1.08343     c0.28376,0.28376,0.50732,0.59331,0.67929,0.93725c0.24936,0.47293,0.39554,0.99744,0.41273,1.53056     c0.0344,0.56751-0.05159,1.15222-0.28376,1.67674c-0.17197,0.44713-0.44713,0.85987-0.80827,1.22101l-6.66396,6.66396     c-1.47897,1.47897-3.88659,1.47897-5.36556,0c-1.47897-1.47897-1.47897-3.88659,0-5.36556l5.65791-5.65791"/></g><g><path class="st1" d="M18.53287,23.50343c0.18057,0.50732,0.43853,1.00604,0.77388,1.46177"/><path class="st1" d="M28.69648,23.0391c0.33535,0.45573,0.59331,0.93725,0.78248,1.45317"/></g></g></g></svg>