<svg width="84" height="84" viewBox="0 0 84 84" fill="none" xmlns="http://www.w3.org/2000/svg">
<rect width="84" height="84" rx="42" fill="#171717"/>
<path d="M66.3308 39.9562H65.8305C59.9991 39.9562 54.1676 39.9516 48.3371 39.9626C47.6789 39.9635 47.1668 39.738 46.745 39.2414C46.2539 38.6636 45.7463 38.0985 45.2388 37.5343C44.524 36.7401 43.6677 36.7283 42.9173 37.5042C42.3057 38.1368 41.6986 38.774 41.0961 39.4167C40.7556 39.78 40.3585 39.9608 39.8492 39.9608C32.621 39.9535 25.3929 39.9562 18.1638 39.9553C18.0305 39.9553 17.8972 39.9434 17.6699 39.9334C17.826 38.931 17.9401 37.957 18.1382 37.0003C18.3226 36.1121 18.6084 35.2467 18.8247 34.3648C18.9142 34.0015 19.1004 33.9093 19.4646 33.9102C27.0123 33.9221 34.559 33.912 42.1067 33.9267C43.1848 33.9285 44.052 33.5962 44.7257 32.7372C45.0991 32.2607 45.5172 31.8161 45.9344 31.3752C46.5816 30.6914 47.4479 30.7124 48.0769 31.4153C48.5936 31.9914 49.1203 32.5601 49.6142 33.1562C50.0798 33.7176 50.6649 33.9248 51.377 33.9239C55.7652 33.9148 60.1543 33.9248 64.5425 33.9102C64.9441 33.9084 65.1075 34.0207 65.2308 34.4123C65.7922 36.197 66.1756 38.0109 66.329 39.9571L66.3308 39.9562Z" fill="white"/>
<path d="M20.0459 52.6214C19.1029 50.6806 18.4483 48.6732 18.0439 46.5206C18.2585 46.5206 18.4356 46.5206 18.6127 46.5206C23.5942 46.5206 28.5758 46.5151 33.5574 46.5252C34.5487 46.527 35.3548 46.1956 35.9884 45.4233C36.3928 44.9313 36.82 44.4575 37.2536 43.9901C37.8917 43.3027 38.7745 43.3045 39.4025 43.9928C39.9347 44.5753 40.466 45.1604 40.9736 45.7647C41.4291 46.3088 41.9978 46.5243 42.6943 46.5233C50.273 46.5169 57.8517 46.5197 65.4295 46.5197C65.6094 46.5197 65.7892 46.5197 65.9992 46.5197C65.6212 48.5837 64.9813 50.5144 64.1259 52.3804C63.9936 52.6697 63.7836 52.6223 63.5645 52.6223C59.2512 52.6223 54.9378 52.6223 50.6245 52.6223C46.9794 52.6223 43.3343 52.6131 39.6901 52.6305C38.9488 52.6341 38.3737 52.3959 37.9036 51.8217C37.4325 51.2466 36.9268 50.7007 36.4293 50.1475C35.782 49.4272 34.9194 49.3971 34.2411 50.0817C33.5793 50.75 32.9594 51.4638 32.2656 52.0974C31.9854 52.3539 31.5609 52.594 31.2003 52.5976C27.4959 52.6341 23.7905 52.6195 20.0441 52.6195L20.0459 52.6214Z" fill="white"/>
<path d="M61.4546 27.3722C60.2605 27.3722 59.0656 27.3722 57.8715 27.3722C57.5529 27.3722 57.2334 27.3694 56.9148 27.3722C56.3507 27.3786 55.8815 27.1686 55.5063 26.7505C54.9494 26.1288 54.4035 25.498 53.8412 24.8809C53.1894 24.1652 52.3203 24.1488 51.6494 24.8371C51.046 25.456 50.4453 26.0795 49.862 26.7176C49.4466 27.1722 48.9628 27.3795 48.3365 27.3786C39.9253 27.3676 31.5131 27.3712 23.1019 27.3712C22.9367 27.3712 22.7714 27.3712 22.4629 27.3712C26.6448 22.0245 31.9449 18.7117 38.5706 17.8554C47.9403 16.645 55.5537 19.9742 61.5057 27.2015C61.4883 27.2581 61.471 27.3147 61.4537 27.3712L61.4546 27.3722Z" fill="white"/>
<path d="M24.2549 58.682C25.2627 58.5953 25.9811 58.0923 26.5718 57.341C26.9086 56.9128 27.2911 56.5194 27.6563 56.1122C28.2798 55.4166 29.1689 55.3947 29.8024 56.0766C30.3182 56.6326 30.8276 57.1958 31.3078 57.7819C31.798 58.3816 32.4005 58.6236 33.1737 58.6226C41.857 58.6099 50.5402 58.6144 59.2244 58.6144C59.4034 58.6144 59.5832 58.6144 59.7621 58.6144C55.614 63.0747 50.5329 65.6984 44.4961 66.2643C36.5595 67.0083 29.8207 64.3865 24.2549 58.6811V58.682Z" fill="white"/>
</svg>