<svg width="92" height="92" viewBox="0 0 92 92" fill="none" xmlns="http://www.w3.org/2000/svg">
<g filter="url(#filter0_d_906_179)">
<path d="M84 46.0017C84 69.1933 65.1944 87.9966 41.9899 88C18.8022 88 -0.00335874 69.1933 1.80101e-06 45.9983C-0.00671927 22.8033 18.7988 4 41.9966 4C65.1944 4 84 22.8067 84 46.0017V46.0017Z" fill="white"/>
<path d="M58.5239 35.7062C57.9828 30.0816 53.1269 28.1966 46.9905 27.659V19.8538H42.2421V27.4507C40.9953 27.4507 39.7183 27.4742 38.4514 27.5011V19.8538H33.703L33.6996 27.6523C32.6713 27.6725 31.6598 27.6926 30.6751 27.6926V27.6691L24.1254 27.6658V32.7394C24.1254 32.7394 27.6338 32.6722 27.5733 32.736C29.4989 32.736 30.124 33.8515 30.3055 34.8158V43.7064C30.4399 43.7064 30.6113 43.7131 30.8062 43.74H30.3055L30.3021 56.1955C30.2181 56.8003 29.8619 57.7646 28.5177 57.768C28.5781 57.8218 25.0664 57.768 25.0664 57.768L24.1221 63.4397H30.3055C31.4548 63.4397 32.5873 63.4598 33.6962 63.4666L33.6996 71.3592H38.4447V63.5506C39.7452 63.5774 41.0054 63.5875 42.2387 63.5875L42.2354 71.3592H46.9838V63.4834C54.9684 63.0264 60.5637 61.0138 61.256 53.5142C61.8172 47.4763 58.9776 44.7782 54.4442 43.6896C57.2032 42.2918 58.9272 39.8222 58.5239 35.7062V35.7062ZM51.8767 52.5802C51.8767 58.477 41.7783 57.8083 38.5556 57.8083V47.3486C41.7783 47.3554 51.8767 46.4314 51.8767 52.5802V52.5802ZM49.6655 37.8264C49.6655 43.1923 41.2373 42.564 38.5556 42.5674V33.0854C41.2407 33.0854 49.6689 32.232 49.6655 37.8264Z" fill="white"/>
<path d="M30.3115 43.498H31.0172V44.0188H30.3115V43.498Z" fill="white"/>
<path d="M77 45.5014C77 65.1039 61.1048 80.9972 41.4915 81C21.8923 81 5.99716 65.1039 6 45.4986C5.99432 25.8933 21.8895 10 41.4972 10C61.1048 10 77 25.8961 77 45.5014V45.5014Z" fill="#EAB300"/>
<path d="M55.4664 36.7993C55.0091 32.0451 50.9046 30.4519 45.718 29.9975V23.4001H41.7044V29.8214C40.6506 29.8214 39.5712 29.8413 38.5004 29.864V23.4001H34.4868L34.484 29.9918C33.6148 30.0088 32.7598 30.0259 31.9276 30.0259V30.006L26.3915 30.0031V34.2915C26.3915 34.2915 29.3569 34.2347 29.3058 34.2887C30.9334 34.2887 31.4617 35.2316 31.6151 36.0467V43.5613C31.7287 43.5613 31.8736 43.567 32.0383 43.5897H31.6151L31.6123 54.1176C31.5413 54.6288 31.2402 55.4439 30.104 55.4467C30.1551 55.4921 27.1868 55.4467 27.1868 55.4467L26.3887 60.2406H31.6151C32.5865 60.2406 33.5438 60.2577 34.4811 60.2633L34.484 66.9345H38.4947V60.3343C39.5939 60.3571 40.6591 60.3656 41.7016 60.3656L41.6987 66.9345H45.7123V60.2775C52.4612 59.8913 57.1906 58.1902 57.7757 51.8513C58.25 46.7478 55.8499 44.4673 52.0181 43.5471C54.3501 42.3657 55.8073 40.2783 55.4664 36.7993V36.7993ZM49.848 51.0617C49.848 56.0459 41.3124 55.4808 38.5884 55.4808V46.6399C41.3124 46.6455 49.848 45.8645 49.848 51.0617V51.0617ZM47.979 38.5913C47.979 43.1268 40.8551 42.5957 38.5884 42.5985V34.5841C40.8579 34.5841 47.9818 33.8627 47.979 38.5913Z" fill="white"/>
<path d="M31.6201 43.3853H32.2166V43.8255H31.6201V43.3853Z" fill="white"/>
</g>
<defs>
<filter id="filter0_d_906_179" x="0" y="0" width="92" height="92" filterUnits="userSpaceOnUse" color-interpolation-filters="sRGB">
<feFlood flood-opacity="0" result="BackgroundImageFix"/>
<feColorMatrix in="SourceAlpha" type="matrix" values="0 0 0 0 0 0 0 0 0 0 0 0 0 0 0 0 0 0 127 0" result="hardAlpha"/>
<feOffset dx="4"/>
<feGaussianBlur stdDeviation="2"/>
<feComposite in2="hardAlpha" operator="out"/>
<feColorMatrix type="matrix" values="0 0 0 0 0 0 0 0 0 0 0 0 0 0 0 0 0 0 0.13 0"/>
<feBlend mode="normal" in2="BackgroundImageFix" result="effect1_dropShadow_906_179"/>
<feBlend mode="normal" in="SourceGraphic" in2="effect1_dropShadow_906_179" result="shape"/>
</filter>
</defs>
</svg>
