<svg width="92" height="92" viewBox="0 0 92 92" fill="none" xmlns="http://www.w3.org/2000/svg">
<g filter="url(#filter0_d_905_155)">
<circle cx="45" cy="42" r="42" fill="#F6F6F6"/>
</g>
<path d="M44.9974 15L44.626 16.2306V51.9366L44.9974 52.2981L61.99 42.501L44.9974 15Z" fill="#343434"/>
<path d="M44.993 15L28 42.501L44.993 52.2981V34.9674V15Z" fill="#8C8C8C"/>
<path d="M44.9974 55.436L44.7881 55.685V68.404L44.9974 69.0001L62.0004 45.644L44.9974 55.436Z" fill="#3C3C3B"/>
<path d="M44.993 69.0001V55.436L28 45.644L44.993 69.0001Z" fill="#8C8C8C"/>
<path d="M44.9902 52.2975L61.9828 42.5005L44.9902 34.9668V52.2975Z" fill="#141414"/>
<path d="M28 42.5005L44.993 52.2975V34.9668L28 42.5005Z" fill="#393939"/>
<defs>
<filter id="filter0_d_905_155" x="0" y="0" width="92" height="92" filterUnits="userSpaceOnUse" color-interpolation-filters="sRGB">
<feFlood flood-opacity="0" result="BackgroundImageFix"/>
<feColorMatrix in="SourceAlpha" type="matrix" values="0 0 0 0 0 0 0 0 0 0 0 0 0 0 0 0 0 0 127 0" result="hardAlpha"/>
<feOffset dx="1" dy="4"/>
<feGaussianBlur stdDeviation="2"/>
<feComposite in2="hardAlpha" operator="out"/>
<feColorMatrix type="matrix" values="0 0 0 0 0 0 0 0 0 0 0 0 0 0 0 0 0 0 0.11 0"/>
<feBlend mode="normal" in2="BackgroundImageFix" result="effect1_dropShadow_905_155"/>
<feBlend mode="normal" in="SourceGraphic" in2="effect1_dropShadow_905_155" result="shape"/>
</filter>
</defs>
</svg>