<svg width="92" height="92" viewBox="0 0 92 92" fill="none" xmlns="http://www.w3.org/2000/svg">
<g filter="url(#filter0_d_906_168)">
<circle cx="46" cy="42" r="41.5" fill="white" stroke="white"/>
<g clip-path="url(#clip0_906_168)">
<path d="M66.7838 53.1719L59.8504 60.4961C59.6997 60.6552 59.5173 60.782 59.3146 60.8687C59.112 60.9554 58.8934 61.0001 58.6725 61H25.8049C25.6481 61 25.4947 60.9548 25.3635 60.8702C25.2324 60.7854 25.1292 60.6649 25.0667 60.5232C25.0042 60.3815 24.9851 60.2249 25.0117 60.0727C25.0383 59.9204 25.1094 59.7792 25.2164 59.6662L32.155 52.342C32.3053 52.1833 32.4871 52.0567 32.6891 51.9701C32.8911 51.8834 33.109 51.8385 33.3293 51.8381H66.1951C66.3519 51.8381 66.5053 51.8832 66.6366 51.9679C66.7676 52.0526 66.8707 52.1733 66.9335 52.3149C66.9958 52.4566 67.015 52.6132 66.9884 52.7654C66.9618 52.9176 66.8906 53.0589 66.7838 53.1719ZM59.8504 38.4229C59.6997 38.2638 59.5173 38.137 59.3146 38.0503C59.112 37.9636 58.8934 37.9189 58.6725 37.9191H25.8049C25.6481 37.9191 25.4947 37.9642 25.3635 38.0489C25.2324 38.1336 25.1292 38.2542 25.0667 38.3959C25.0042 38.5376 24.9851 38.6941 25.0117 38.8464C25.0383 38.9986 25.1094 39.1399 25.2164 39.2528L32.155 46.5771C32.3053 46.7357 32.4871 46.8623 32.6891 46.949C32.8911 47.0357 33.109 47.0806 33.3293 47.0809H66.1951C66.3519 47.0809 66.5053 47.0358 66.6366 46.9511C66.7676 46.8664 66.8707 46.7458 66.9335 46.6041C66.9958 46.4624 67.015 46.3059 66.9884 46.1536C66.9618 46.0014 66.8906 45.8601 66.7838 45.7472L59.8504 38.4229ZM25.8049 33.1619H58.6725C58.8934 33.162 59.112 33.1173 59.3146 33.0306C59.5173 32.944 59.6997 32.8171 59.8504 32.658L66.7838 25.3338C66.8906 25.2208 66.9618 25.0796 66.9884 24.9273C67.015 24.7751 66.9958 24.6185 66.9335 24.4768C66.8707 24.3352 66.7676 24.2146 66.6366 24.1298C66.5053 24.0451 66.3519 24 66.1951 24H33.3293C33.109 24.0004 32.8911 24.0453 32.6891 24.132C32.4871 24.2186 32.3053 24.3452 32.155 24.5039L25.2182 31.8281C25.1113 31.941 25.0402 32.0821 25.0135 32.2341C24.9869 32.3862 25.0058 32.5427 25.0681 32.6843C25.1304 32.8259 25.2333 32.9465 25.3642 33.0313C25.4951 33.1162 25.6482 33.1615 25.8049 33.1619Z" fill="url(#paint0_linear_906_168)"/>
</g>
</g>
<circle cx="45.5" cy="41.5" r="34" fill="black" stroke="white"/>
<g clip-path="url(#clip1_906_168)">
<path d="M62.5724 50.6769L56.8771 56.6933C56.7533 56.824 56.6035 56.9282 56.437 56.9994C56.2706 57.0706 56.091 57.1073 55.9095 57.1072H28.9112C28.7824 57.1072 28.6563 57.0701 28.5486 57.0006C28.4409 56.931 28.3561 56.8319 28.3048 56.7155C28.2534 56.5992 28.2377 56.4706 28.2596 56.3455C28.2814 56.2204 28.3399 56.1044 28.4278 56.0116L34.1273 49.9953C34.2508 49.8649 34.4001 49.7609 34.566 49.6898C34.732 49.6186 34.911 49.5817 35.092 49.5814H62.0888C62.2176 49.5814 62.3437 49.6184 62.4515 49.688C62.5591 49.7576 62.6438 49.8567 62.6954 49.973C62.7466 50.0894 62.7623 50.218 62.7404 50.3431C62.7186 50.4681 62.6602 50.5842 62.5724 50.6769ZM56.8771 38.5618C56.7533 38.4311 56.6035 38.3269 56.437 38.2557C56.2706 38.1845 56.091 38.1478 55.9095 38.1479H28.9112C28.7824 38.1479 28.6563 38.1849 28.5486 38.2545C28.4409 38.3241 28.3561 38.4232 28.3048 38.5395C28.2534 38.6559 28.2377 38.7845 28.2596 38.9096C28.2814 39.0346 28.3399 39.1507 28.4278 39.2435L34.1273 45.2598C34.2508 45.3901 34.4001 45.4941 34.566 45.5653C34.732 45.6365 34.911 45.6734 35.092 45.6737H62.0888C62.2176 45.6737 62.3437 45.6366 62.4515 45.567C62.5591 45.4975 62.6438 45.3984 62.6954 45.282C62.7466 45.1657 62.7623 45.037 62.7404 44.912C62.7186 44.787 62.6602 44.6709 62.5724 44.5781L56.8771 38.5618ZM28.9112 34.2402H55.9095C56.091 34.2403 56.2706 34.2036 56.437 34.1324C56.6035 34.0612 56.7533 33.957 56.8771 33.8263L62.5724 27.8099C62.6602 27.7172 62.7186 27.6011 62.7404 27.4761C62.7623 27.351 62.7466 27.2224 62.6954 27.106C62.6438 26.9897 62.5591 26.8906 62.4515 26.821C62.3437 26.7514 62.2176 26.7144 62.0888 26.7144H35.092C34.911 26.7147 34.732 26.7516 34.566 26.8228C34.4001 26.8939 34.2508 26.9979 34.1273 27.1283L28.4292 33.1446C28.3414 33.2373 28.283 33.3532 28.2611 33.4781C28.2392 33.603 28.2548 33.7315 28.306 33.8479C28.3571 33.9642 28.4417 34.0632 28.5492 34.1329C28.6567 34.2026 28.7825 34.2399 28.9112 34.2402Z" fill="url(#paint1_linear_906_168)"/>
</g>
<defs>
<filter id="filter0_d_906_168" x="0" y="0" width="92" height="92" filterUnits="userSpaceOnUse" color-interpolation-filters="sRGB">
<feFlood flood-opacity="0" result="BackgroundImageFix"/>
<feColorMatrix in="SourceAlpha" type="matrix" values="0 0 0 0 0 0 0 0 0 0 0 0 0 0 0 0 0 0 127 0" result="hardAlpha"/>
<feOffset dy="4"/>
<feGaussianBlur stdDeviation="2"/>
<feComposite in2="hardAlpha" operator="out"/>
<feColorMatrix type="matrix" values="0 0 0 0 0 0 0 0 0 0 0 0 0 0 0 0 0 0 0.1 0"/>
<feBlend mode="normal" in2="BackgroundImageFix" result="effect1_dropShadow_906_168"/>
<feBlend mode="normal" in="SourceGraphic" in2="effect1_dropShadow_906_168" result="shape"/>
</filter>
<linearGradient id="paint0_linear_906_168" x1="28.5453" y1="61.8818" x2="62.4304" y2="23.1017" gradientUnits="userSpaceOnUse">
<stop offset="0.08" stop-color="#9945FF"/>
<stop offset="0.3" stop-color="#8752F3"/>
<stop offset="0.5" stop-color="#5497D5"/>
<stop offset="0.6" stop-color="#43B4CA"/>
<stop offset="0.72" stop-color="#28E0B9"/>
<stop offset="0.97" stop-color="#19FB9B"/>
</linearGradient>
<linearGradient id="paint1_linear_906_168" x1="31.1622" y1="57.8316" x2="58.9964" y2="25.9765" gradientUnits="userSpaceOnUse">
<stop offset="0.08" stop-color="#9945FF"/>
<stop offset="0.3" stop-color="#8752F3"/>
<stop offset="0.5" stop-color="#5497D5"/>
<stop offset="0.6" stop-color="#43B4CA"/>
<stop offset="0.72" stop-color="#28E0B9"/>
<stop offset="0.97" stop-color="#19FB9B"/>
</linearGradient>
<clipPath id="clip0_906_168">
<rect width="42" height="37" fill="white" transform="translate(25 24)"/>
</clipPath>
<clipPath id="clip1_906_168">
<rect width="34.5" height="30.3929" fill="white" transform="translate(28.25 26.7144)"/>
</clipPath>
</defs>
</svg>